<svg width="39" height="37" viewBox="0 0 39 37" fill="none" xmlns="http://www.w3.org/2000/svg">
<path d="M36.855 25.4478C34.19 25.4478 31.6117 25.0367 29.2067 24.2967C28.4483 24.05 27.6033 24.235 27.0183 24.79L23.6167 28.8394C17.485 26.0644 11.7433 20.8228 8.68833 14.8L12.9133 11.3878C13.4983 10.8122 13.6717 10.0106 13.4333 9.29111C12.6317 7.00944 12.22 4.56333 12.22 2.035C12.22 0.925 11.245 0 10.075 0H2.57833C1.40833 0 0 0.493333 0 2.035C0 21.1311 16.7483 37 36.855 37C38.3933 37 39 35.705 39 34.5744V27.4828C39 26.3728 38.025 25.4478 36.855 25.4478Z" fill="#6E6E6E"/>
</svg>
