<svg width="26" height="25" viewBox="0 0 26 25" fill="none" xmlns="http://www.w3.org/2000/svg">
<path d="M22.2012 3.66C19.7493 1.30125 16.4887 0.00125 13.0149 0C5.85679 0 0.0312017 5.59875 0.0286015 12.4812C0.0273015 14.6812 0.625331 16.8287 1.76159 18.7212L0 25L6.80324 23.4537C8.70003 24.4487 10.8347 24.9725 13.0084 24.9737H13.0136C20.1705 24.9737 25.9961 19.3737 26 12.4925C26.0026 9.15625 24.6531 6.02 22.2012 3.66ZM19.3684 16.9425C19.098 17.6712 17.7732 18.3737 17.1778 18.425C16.5823 18.4775 16.0246 18.6837 13.2841 17.645C9.9858 16.395 7.90309 13.1437 7.74189 12.9362C7.57938 12.7275 6.41712 11.245 6.41712 9.71C6.41712 8.175 7.25566 7.42 7.55338 7.10875C7.85109 6.79625 8.20211 6.71875 8.41922 6.71875C8.63503 6.71875 8.85214 6.71875 9.04065 6.72625C9.27206 6.735 9.52818 6.74625 9.77129 7.265C10.0599 7.8825 10.6904 9.425 10.771 9.58125C10.8516 9.7375 10.9062 9.92 10.7983 10.1275C10.6904 10.335 10.6358 10.465 10.4746 10.6475C10.3121 10.83 10.134 11.0537 9.9884 11.1937C9.82589 11.3487 9.65688 11.5187 9.84539 11.83C10.0352 12.1425 10.6852 13.1637 11.6499 13.99C12.8901 15.0525 13.9341 15.3812 14.2591 15.5387C14.5841 15.695 14.7726 15.6687 14.9624 15.46C15.1523 15.2525 15.7737 14.55 15.9895 14.2375C16.2053 13.925 16.4224 13.9775 16.7201 14.0812C17.0178 14.185 18.613 14.94 18.9367 15.0962C19.2618 15.2525 19.4776 15.33 19.5582 15.46C19.6388 15.5887 19.6388 16.2137 19.3684 16.9425Z" fill="white"/>
</svg>
