<svg width="26" height="27" viewBox="0 0 26 27" fill="none" xmlns="http://www.w3.org/2000/svg">
<path d="M13 0C5.824 0 0 6.048 0 13.5C0 20.952 5.824 27 13 27H19.5V24.3H13C7.358 24.3 2.6 19.359 2.6 13.5C2.6 7.641 7.358 2.7 13 2.7C18.642 2.7 23.4 7.641 23.4 13.5V15.4305C23.4 16.497 22.477 17.55 21.45 17.55C20.423 17.55 19.5 16.497 19.5 15.4305V13.5C19.5 9.774 16.588 6.75 13 6.75C9.412 6.75 6.5 9.774 6.5 13.5C6.5 17.226 9.412 20.25 13 20.25C14.794 20.25 16.432 19.494 17.602 18.2655C18.447 19.467 19.903 20.25 21.45 20.25C24.011 20.25 26 18.09 26 15.4305V13.5C26 6.048 20.176 0 13 0ZM13 17.55C10.842 17.55 9.1 15.741 9.1 13.5C9.1 11.259 10.842 9.45 13 9.45C15.158 9.45 16.9 11.259 16.9 13.5C16.9 15.741 15.158 17.55 13 17.55Z" fill="white"/>
</svg>
