<svg width="26" height="27" viewBox="0 0 26 27" fill="none" xmlns="http://www.w3.org/2000/svg">
<path d="M24.57 18.57C22.7933 18.57 21.0744 18.27 19.4711 17.73C18.9656 17.55 18.4022 17.685 18.0122 18.09L15.7444 21.045C11.6567 19.02 7.82889 15.195 5.79222 10.8L8.60889 8.31C8.99889 7.89 9.11444 7.305 8.95555 6.78C8.42111 5.115 8.14667 3.33 8.14667 1.485C8.14667 0.675 7.49667 0 6.71667 0H1.71889C0.938889 0 0 0.36 0 1.485C0 15.42 11.1656 27 24.57 27C25.5956 27 26 26.055 26 25.23V20.055C26 19.245 25.35 18.57 24.57 18.57Z" fill="white"/>
</svg>
